# xmcd
#
# Track frame offsets:
#	150
#	16599
#	37258
#	52358
#	69006
#	77824
#	96458
#	113739
#	127669
#	143260
#
# Disc length: 2052 seconds
#
# Revision: 1
# Processed by: cddbd v1.5.2PL0 Copyright (c) Steve Scherf et al.
# Submitted via: audiograbber 1.83.01
#
DISCID=7a08020a
DTITLE=Molden - foan
DYEAR=2008
DGENRE=
TTITLE0=lindschi
TTITLE1=willi
TTITLE2=i steh ibahaupt ned mea auf di
TTITLE3=i siech wos finstas
TTITLE4=wossaproblem
TTITLE5=numma zum waanan
TTITLE6=i sauf
TTITLE7=vü föd ned
TTITLE8=georgia lee
TTITLE9=wohnan duast bei mir
EXTD=
EXTT0=
EXTT1=
EXTT2=
EXTT3=
EXTT4=
EXTT5=
EXTT6=
EXTT7=
EXTT8=
EXTT9=
PLAYORDER=
